<mxfile host="app.diagrams.net" agent="Mozilla/5.0 (Windows NT 10.0; Win64; x64) AppleWebKit/537.36 (KHTML, like Gecko) Chrome/131.0.0.0 Safari/537.36" version="25.0.1">
  <diagram id="C5RBs43oDa-KdzZeNtuy" name="Page-1">
    <mxGraphModel dx="2100" dy="1148" grid="1" gridSize="10" guides="1" tooltips="1" connect="1" arrows="1" fold="1" page="1" pageScale="1" pageWidth="4681" pageHeight="3300" math="0" shadow="0">
      <root>
        <mxCell id="WIyWlLk6GJQsqaUBKTNV-0" />
        <mxCell id="WIyWlLk6GJQsqaUBKTNV-1" parent="WIyWlLk6GJQsqaUBKTNV-0" />
        <mxCell id="3bDkZ6XuROaeYBq_H3r6-121" style="edgeStyle=orthogonalEdgeStyle;rounded=0;orthogonalLoop=1;jettySize=auto;html=1;" parent="WIyWlLk6GJQsqaUBKTNV-1" source="3bDkZ6XuROaeYBq_H3r6-7" target="3bDkZ6XuROaeYBq_H3r6-32" edge="1">
          <mxGeometry relative="1" as="geometry">
            <Array as="points">
              <mxPoint x="2515" y="1290" />
            </Array>
          </mxGeometry>
        </mxCell>
        <mxCell id="3bDkZ6XuROaeYBq_H3r6-7" value="&lt;h3&gt;Doctor&lt;/h3&gt;" style="swimlane;fontStyle=0;childLayout=stackLayout;horizontal=1;startSize=30;horizontalStack=0;resizeParent=1;resizeParentMax=0;resizeLast=0;collapsible=1;marginBottom=0;whiteSpace=wrap;html=1;" parent="WIyWlLk6GJQsqaUBKTNV-1" vertex="1">
          <mxGeometry x="2390" y="675" width="281" height="260" as="geometry" />
        </mxCell>
        <mxCell id="3bDkZ6XuROaeYBq_H3r6-10" value="&lt;div style=&quot;background-color: rgb(255, 255, 254); font-family: Consolas, &amp;quot;Courier New&amp;quot;, monospace; font-size: 14px; line-height: 19px; white-space: pre;&quot;&gt;&lt;div style=&quot;line-height: 19px;&quot;&gt;&lt;div style=&quot;line-height: 19px;&quot;&gt;&lt;div&gt;&lt;span style=&quot;font-weight: bold;&quot;&gt;-&lt;/span&gt;DoctorID&lt;span style=&quot;font-weight: bold;&quot;&gt;:&lt;/span&gt; int&lt;/div&gt;&lt;div&gt;&lt;span style=&quot;font-weight: bold;&quot;&gt;-&lt;/span&gt;FullName&lt;span style=&quot;font-weight: bold;&quot;&gt;:&lt;/span&gt; String&lt;/div&gt;&lt;div&gt;&lt;span style=&quot;font-weight: bold;&quot;&gt;-&lt;/span&gt;Specialty&lt;span style=&quot;font-weight: bold;&quot;&gt;:&lt;/span&gt; String&lt;/div&gt;&lt;div&gt;&lt;span style=&quot;font-weight: bold;&quot;&gt;-&lt;/span&gt;ContactInfo&lt;span style=&quot;font-weight: bold;&quot;&gt;:&lt;/span&gt; String&lt;/div&gt;&lt;div&gt;&lt;span style=&quot;font-weight: bold;&quot;&gt;-&lt;/span&gt;LicenseNumber&lt;span style=&quot;font-weight: bold;&quot;&gt;:&lt;/span&gt; String&lt;/div&gt;&lt;div&gt;&lt;span style=&quot;font-weight: bold;&quot;&gt;-&lt;/span&gt;ConsultationFee&lt;span style=&quot;font-weight: bold;&quot;&gt;:&lt;/span&gt; Double&lt;/div&gt;&lt;div&gt;&lt;span style=&quot;font-weight: bold;&quot;&gt;-&lt;/span&gt;DepartmentID&lt;span style=&quot;font-weight: bold;&quot;&gt;:&lt;/span&gt; int&lt;/div&gt;&lt;hr&gt;&lt;div&gt;&lt;span style=&quot;font-weight: bold;&quot;&gt;+&lt;/span&gt;prescribe&lt;span style=&quot;font-weight: bold;&quot;&gt;():&lt;/span&gt; prescription&lt;/div&gt;&lt;div&gt;&lt;span style=&quot;font-weight: bold;&quot;&gt;+&lt;/span&gt;viewMedicalHistory&lt;span style=&quot;font-weight: bold;&quot;&gt;():&lt;/span&gt; History&lt;/div&gt;&lt;div&gt;&lt;span style=&quot;font-weight: bold;&quot;&gt;+&lt;/span&gt;checkDrugInteractions&lt;span style=&quot;font-weight: bold;&quot;&gt;():&lt;/span&gt; History&lt;/div&gt;&lt;/div&gt;&lt;/div&gt;&lt;/div&gt;" style="text;strokeColor=none;fillColor=none;align=left;verticalAlign=top;spacingLeft=4;spacingRight=4;overflow=hidden;points=[[0,0.5],[1,0.5]];portConstraint=eastwest;rotatable=0;whiteSpace=wrap;html=1;" parent="3bDkZ6XuROaeYBq_H3r6-7" vertex="1">
          <mxGeometry y="30" width="281" height="230" as="geometry" />
        </mxCell>
        <mxCell id="3bDkZ6XuROaeYBq_H3r6-58" style="edgeStyle=orthogonalEdgeStyle;rounded=0;orthogonalLoop=1;jettySize=auto;html=1;" parent="WIyWlLk6GJQsqaUBKTNV-1" source="3bDkZ6XuROaeYBq_H3r6-19" target="3bDkZ6XuROaeYBq_H3r6-22" edge="1">
          <mxGeometry relative="1" as="geometry">
            <Array as="points">
              <mxPoint x="1730" y="1020" />
            </Array>
          </mxGeometry>
        </mxCell>
        <mxCell id="3bDkZ6XuROaeYBq_H3r6-73" style="edgeStyle=orthogonalEdgeStyle;rounded=0;orthogonalLoop=1;jettySize=auto;html=1;" parent="WIyWlLk6GJQsqaUBKTNV-1" source="3bDkZ6XuROaeYBq_H3r6-19" target="3bDkZ6XuROaeYBq_H3r6-32" edge="1">
          <mxGeometry relative="1" as="geometry">
            <Array as="points">
              <mxPoint x="1690" y="1290" />
            </Array>
          </mxGeometry>
        </mxCell>
        <mxCell id="3bDkZ6XuROaeYBq_H3r6-77" style="edgeStyle=orthogonalEdgeStyle;rounded=0;orthogonalLoop=1;jettySize=auto;html=1;entryX=0;entryY=0.5;entryDx=0;entryDy=0;" parent="WIyWlLk6GJQsqaUBKTNV-1" source="3bDkZ6XuROaeYBq_H3r6-19" target="3bDkZ6XuROaeYBq_H3r6-43" edge="1">
          <mxGeometry relative="1" as="geometry">
            <Array as="points">
              <mxPoint x="1645" y="1410" />
              <mxPoint x="1790" y="1410" />
              <mxPoint x="1790" y="1725" />
            </Array>
          </mxGeometry>
        </mxCell>
        <mxCell id="3bDkZ6XuROaeYBq_H3r6-129" style="edgeStyle=orthogonalEdgeStyle;rounded=0;orthogonalLoop=1;jettySize=auto;html=1;" parent="WIyWlLk6GJQsqaUBKTNV-1" source="3bDkZ6XuROaeYBq_H3r6-19" target="3bDkZ6XuROaeYBq_H3r6-34" edge="1">
          <mxGeometry relative="1" as="geometry" />
        </mxCell>
        <mxCell id="3bDkZ6XuROaeYBq_H3r6-19" value="&lt;h3&gt;Patient&lt;/h3&gt;" style="swimlane;fontStyle=0;childLayout=stackLayout;horizontal=1;startSize=30;horizontalStack=0;resizeParent=1;resizeParentMax=0;resizeLast=0;collapsible=1;marginBottom=0;whiteSpace=wrap;html=1;" parent="WIyWlLk6GJQsqaUBKTNV-1" vertex="1">
          <mxGeometry x="1500" y="680" width="311" height="280" as="geometry" />
        </mxCell>
        <mxCell id="3bDkZ6XuROaeYBq_H3r6-20" value="&lt;div style=&quot;background-color: rgb(255, 255, 254); font-family: Consolas, &amp;quot;Courier New&amp;quot;, monospace; font-size: 14px; line-height: 19px; white-space: pre;&quot;&gt;&lt;div style=&quot;line-height: 19px;&quot;&gt;&lt;div style=&quot;line-height: 19px;&quot;&gt;&lt;div style=&quot;line-height: 19px;&quot;&gt;&lt;div&gt;&lt;span style=&quot;font-weight: bold;&quot;&gt;-&lt;/span&gt;PatientID&lt;span style=&quot;font-weight: bold;&quot;&gt;:&lt;/span&gt; int&lt;/div&gt;&lt;div&gt;&lt;span style=&quot;font-weight: bold;&quot;&gt;-&lt;/span&gt;FullName&lt;span style=&quot;font-weight: bold;&quot;&gt;:&lt;/span&gt; String&lt;/div&gt;&lt;div&gt;&lt;span style=&quot;font-weight: bold;&quot;&gt;-&lt;/span&gt;DateOfBirth&lt;span style=&quot;font-weight: bold;&quot;&gt;:&lt;/span&gt; Date&lt;/div&gt;&lt;div&gt;&lt;span style=&quot;font-weight: bold;&quot;&gt;-&lt;/span&gt;Gender&lt;span style=&quot;font-weight: bold;&quot;&gt;:&lt;/span&gt; String&lt;/div&gt;&lt;div&gt;&lt;span style=&quot;font-weight: bold;&quot;&gt;-&lt;/span&gt;BloodType&lt;span style=&quot;font-weight: bold;&quot;&gt;:&lt;/span&gt; String&lt;/div&gt;&lt;div&gt;&lt;span style=&quot;font-weight: bold;&quot;&gt;-&lt;/span&gt;EmergencyContact&lt;span style=&quot;font-weight: bold;&quot;&gt;:&lt;/span&gt; String&lt;/div&gt;&lt;div&gt;&lt;span style=&quot;font-weight: bold;&quot;&gt;-&lt;/span&gt;ContactInfo&lt;span style=&quot;font-weight: bold;&quot;&gt;:&lt;/span&gt; String&lt;/div&gt;&lt;div&gt;&lt;b&gt;-&lt;/b&gt;Feedback: Feedback&lt;/div&gt;&lt;hr&gt;&lt;div&gt;&lt;span style=&quot;font-weight: bold;&quot;&gt;+&lt;/span&gt;getProfile&lt;span style=&quot;font-weight: bold;&quot;&gt;():&lt;/span&gt; Patient&lt;/div&gt;&lt;div&gt;&lt;span style=&quot;font-weight: bold;&quot;&gt;+&lt;/span&gt;updateProfile&lt;span style=&quot;font-weight: bold;&quot;&gt;(&lt;/span&gt;patient&lt;span style=&quot;font-weight: bold;&quot;&gt;:&lt;/span&gt;Patient&lt;span style=&quot;font-weight: bold;&quot;&gt;):&lt;/span&gt; void&lt;/div&gt;&lt;div&gt;&lt;span style=&quot;font-weight: bold;&quot;&gt;+&lt;/span&gt;getEHR&lt;span style=&quot;font-weight: bold;&quot;&gt;(&lt;/span&gt;patient&lt;span style=&quot;font-weight: bold;&quot;&gt;:&lt;/span&gt;Patient&lt;span style=&quot;font-weight: bold;&quot;&gt;):&lt;/span&gt; EHR&lt;/div&gt;&lt;/div&gt;&lt;/div&gt;&lt;/div&gt;&lt;/div&gt;" style="text;strokeColor=none;fillColor=none;align=left;verticalAlign=top;spacingLeft=4;spacingRight=4;overflow=hidden;points=[[0,0.5],[1,0.5]];portConstraint=eastwest;rotatable=0;whiteSpace=wrap;html=1;" parent="3bDkZ6XuROaeYBq_H3r6-19" vertex="1">
          <mxGeometry y="30" width="311" height="250" as="geometry" />
        </mxCell>
        <mxCell id="3bDkZ6XuROaeYBq_H3r6-131" style="edgeStyle=orthogonalEdgeStyle;rounded=0;orthogonalLoop=1;jettySize=auto;html=1;" parent="WIyWlLk6GJQsqaUBKTNV-1" source="3bDkZ6XuROaeYBq_H3r6-21" target="3bDkZ6XuROaeYBq_H3r6-23" edge="1">
          <mxGeometry relative="1" as="geometry">
            <Array as="points">
              <mxPoint x="2110" y="1520" />
              <mxPoint x="1690" y="1520" />
            </Array>
          </mxGeometry>
        </mxCell>
        <mxCell id="3bDkZ6XuROaeYBq_H3r6-135" style="edgeStyle=orthogonalEdgeStyle;rounded=0;orthogonalLoop=1;jettySize=auto;html=1;entryX=0.998;entryY=0.107;entryDx=0;entryDy=0;entryPerimeter=0;" parent="WIyWlLk6GJQsqaUBKTNV-1" source="3bDkZ6XuROaeYBq_H3r6-21" target="3bDkZ6XuROaeYBq_H3r6-43" edge="1">
          <mxGeometry relative="1" as="geometry">
            <mxPoint x="2170" y="1640" as="targetPoint" />
            <Array as="points">
              <mxPoint x="2270" y="1120" />
              <mxPoint x="2270" y="1650" />
            </Array>
          </mxGeometry>
        </mxCell>
        <mxCell id="3bDkZ6XuROaeYBq_H3r6-21" value="&lt;h3&gt;Appointment&amp;nbsp;&lt;/h3&gt;" style="swimlane;fontStyle=0;childLayout=stackLayout;horizontal=1;startSize=30;horizontalStack=0;resizeParent=1;resizeParentMax=0;resizeLast=0;collapsible=1;marginBottom=0;whiteSpace=wrap;html=1;" parent="WIyWlLk6GJQsqaUBKTNV-1" vertex="1">
          <mxGeometry x="1950" y="710" width="281" height="360" as="geometry" />
        </mxCell>
        <mxCell id="3bDkZ6XuROaeYBq_H3r6-22" value="&lt;div style=&quot;background-color: rgb(255, 255, 254); font-family: Consolas, &amp;quot;Courier New&amp;quot;, monospace; font-size: 14px; line-height: 19px; white-space: pre;&quot;&gt;&lt;div style=&quot;line-height: 19px;&quot;&gt;&lt;div style=&quot;line-height: 19px;&quot;&gt;&lt;div style=&quot;line-height: 19px;&quot;&gt;&lt;div&gt;&lt;span style=&quot;font-weight: bold;&quot;&gt;-&lt;/span&gt;AppointmentID&lt;span style=&quot;font-weight: bold;&quot;&gt;:&lt;/span&gt; int&lt;/div&gt;&lt;div&gt;&lt;span style=&quot;font-weight: bold;&quot;&gt;-&lt;/span&gt;AppointmentType&lt;span style=&quot;font-weight: bold;&quot;&gt;:&lt;/span&gt; String&lt;/div&gt;&lt;div&gt;&lt;span style=&quot;font-weight: bold;&quot;&gt;-&lt;/span&gt;AppointmentDate&lt;span style=&quot;font-weight: bold;&quot;&gt;:&lt;/span&gt; Date&lt;/div&gt;&lt;div&gt;&lt;span style=&quot;font-weight: bold;&quot;&gt;-&lt;/span&gt;AppointmentTime&lt;span style=&quot;font-weight: bold;&quot;&gt;:&lt;/span&gt; Time&lt;/div&gt;&lt;div&gt;&lt;span style=&quot;font-weight: bold;&quot;&gt;-&lt;/span&gt;Symptoms&lt;span style=&quot;font-weight: bold;&quot;&gt;:&lt;/span&gt; String&lt;/div&gt;&lt;div&gt;&lt;span style=&quot;font-weight: bold;&quot;&gt;-&lt;/span&gt;Diagnosis&lt;span style=&quot;font-weight: bold;&quot;&gt;:&lt;/span&gt; String&lt;/div&gt;&lt;div&gt;&lt;span style=&quot;font-weight: bold;&quot;&gt;-&lt;/span&gt;AppointmentStatus&lt;span style=&quot;font-weight: bold;&quot;&gt;:&lt;/span&gt; String&lt;/div&gt;&lt;div&gt;&lt;span style=&quot;font-weight: bold;&quot;&gt;-&lt;/span&gt;PaymentStatus&lt;span style=&quot;font-weight: bold;&quot;&gt;:&lt;/span&gt; String&lt;/div&gt;&lt;div&gt;&lt;span style=&quot;font-weight: bold;&quot;&gt;-&lt;/span&gt;CreatedBy&lt;span style=&quot;font-weight: bold;&quot;&gt;:&lt;/span&gt; int&lt;/div&gt;&lt;div&gt;&lt;span style=&quot;font-weight: bold;&quot;&gt;-&lt;/span&gt;patient&lt;span style=&quot;font-weight: bold;&quot;&gt;: &lt;/span&gt;Patient&lt;/div&gt;&lt;div&gt;&lt;b&gt;-&lt;/b&gt;doctor: Doctor&lt;/div&gt;&lt;div&gt;&lt;b&gt;-&lt;/b&gt;prescription: Prescription&lt;/div&gt;&lt;hr&gt;&lt;div&gt;&lt;span style=&quot;font-weight: bold;&quot;&gt;+&lt;/span&gt;createAppointment&lt;span style=&quot;font-weight: bold;&quot;&gt;():&lt;/span&gt; Appointment&lt;/div&gt;&lt;div&gt;&lt;span style=&quot;font-weight: bold;&quot;&gt;+&lt;/span&gt;cancelAppointment&lt;span style=&quot;font-weight: bold;&quot;&gt;():&lt;/span&gt; void&lt;/div&gt;&lt;div&gt;&lt;span style=&quot;font-weight: bold;&quot;&gt;+&lt;/span&gt;getPatientEHR&lt;span style=&quot;font-weight: bold;&quot;&gt;():&lt;/span&gt; EHR&lt;/div&gt;&lt;div&gt;&lt;span style=&quot;font-weight: bold;&quot;&gt;+&lt;/span&gt;prescribe&lt;span style=&quot;font-weight: bold;&quot;&gt;():&lt;/span&gt; Prescription &lt;/div&gt;&lt;/div&gt;&lt;/div&gt;&lt;/div&gt;&lt;/div&gt;" style="text;strokeColor=none;fillColor=none;align=left;verticalAlign=top;spacingLeft=4;spacingRight=4;overflow=hidden;points=[[0,0.5],[1,0.5]];portConstraint=eastwest;rotatable=0;whiteSpace=wrap;html=1;" parent="3bDkZ6XuROaeYBq_H3r6-21" vertex="1">
          <mxGeometry y="30" width="281" height="330" as="geometry" />
        </mxCell>
        <mxCell id="3bDkZ6XuROaeYBq_H3r6-23" value="&lt;h3&gt;&lt;b&gt;Prescription&lt;/b&gt;&lt;/h3&gt;" style="swimlane;fontStyle=0;childLayout=stackLayout;horizontal=1;startSize=30;horizontalStack=0;resizeParent=1;resizeParentMax=0;resizeLast=0;collapsible=1;marginBottom=0;whiteSpace=wrap;html=1;" parent="WIyWlLk6GJQsqaUBKTNV-1" vertex="1">
          <mxGeometry x="1450" y="1610" width="311" height="290" as="geometry" />
        </mxCell>
        <mxCell id="3bDkZ6XuROaeYBq_H3r6-24" value="&lt;div style=&quot;background-color: rgb(255, 255, 254); font-family: Consolas, &amp;quot;Courier New&amp;quot;, monospace; font-size: 14px; line-height: 19px; white-space: pre;&quot;&gt;&lt;div style=&quot;line-height: 19px;&quot;&gt;&lt;div style=&quot;line-height: 19px;&quot;&gt;&lt;div style=&quot;line-height: 19px;&quot;&gt;&lt;div&gt;&lt;span style=&quot;font-weight: bold;&quot;&gt;-&lt;/span&gt;PrescriptionID&lt;span style=&quot;font-weight: bold;&quot;&gt;:&lt;/span&gt; int&lt;/div&gt;&lt;div&gt;&lt;span style=&quot;font-weight: bold;&quot;&gt;-&lt;/span&gt;AppointmentID&lt;span style=&quot;font-weight: bold;&quot;&gt;:&lt;/span&gt; int&lt;/div&gt;&lt;div&gt;&lt;span style=&quot;font-weight: bold;&quot;&gt;-&lt;/span&gt;DoctorID&lt;span style=&quot;font-weight: bold;&quot;&gt;:&lt;/span&gt; int&lt;/div&gt;&lt;div&gt;&lt;span style=&quot;font-weight: bold;&quot;&gt;-&lt;/span&gt;MedicineName&lt;span style=&quot;font-weight: bold;&quot;&gt;:&lt;/span&gt; String&lt;/div&gt;&lt;div&gt;&lt;span style=&quot;font-weight: bold;&quot;&gt;-&lt;/span&gt;Dosage&lt;span style=&quot;font-weight: bold;&quot;&gt;:&lt;/span&gt; String&lt;/div&gt;&lt;div&gt;&lt;span style=&quot;font-weight: bold;&quot;&gt;-&lt;/span&gt;Frequency&lt;span style=&quot;font-weight: bold;&quot;&gt;:&lt;/span&gt; String&lt;/div&gt;&lt;div&gt;&lt;span style=&quot;font-weight: bold;&quot;&gt;-&lt;/span&gt;Duration&lt;span style=&quot;font-weight: bold;&quot;&gt;:&lt;/span&gt; String&lt;/div&gt;&lt;div&gt;&lt;span style=&quot;font-weight: bold;&quot;&gt;-&lt;/span&gt;Warnings&lt;span style=&quot;font-weight: bold;&quot;&gt;:&lt;/span&gt; String&lt;/div&gt;&lt;div&gt;&lt;span style=&quot;font-weight: bold;&quot;&gt;-&lt;/span&gt;ConflictingDrugs&lt;span style=&quot;font-weight: bold;&quot;&gt;:&lt;/span&gt; String&lt;/div&gt;&lt;div&gt;&lt;b&gt;-&lt;/b&gt;patient:Patient&lt;/div&gt;&lt;hr&gt;&lt;div&gt;&lt;span style=&quot;font-weight: bold;&quot;&gt;+&lt;/span&gt;generatePrescription&lt;span style=&quot;font-weight: bold;&quot;&gt;():&lt;/span&gt; Prescription&lt;/div&gt;&lt;/div&gt;&lt;/div&gt;&lt;/div&gt;&lt;/div&gt;" style="text;strokeColor=none;fillColor=none;align=left;verticalAlign=top;spacingLeft=4;spacingRight=4;overflow=hidden;points=[[0,0.5],[1,0.5]];portConstraint=eastwest;rotatable=0;whiteSpace=wrap;html=1;" parent="3bDkZ6XuROaeYBq_H3r6-23" vertex="1">
          <mxGeometry y="30" width="311" height="260" as="geometry" />
        </mxCell>
        <mxCell id="3bDkZ6XuROaeYBq_H3r6-27" value="&lt;h3&gt;Lab Technician&lt;/h3&gt;" style="swimlane;fontStyle=0;childLayout=stackLayout;horizontal=1;startSize=30;horizontalStack=0;resizeParent=1;resizeParentMax=0;resizeLast=0;collapsible=1;marginBottom=0;whiteSpace=wrap;html=1;" parent="WIyWlLk6GJQsqaUBKTNV-1" vertex="1">
          <mxGeometry x="1100" y="1950" width="221" height="250" as="geometry" />
        </mxCell>
        <mxCell id="3bDkZ6XuROaeYBq_H3r6-28" value="&lt;div style=&quot;background-color: rgb(255, 255, 254); font-family: Consolas, &amp;quot;Courier New&amp;quot;, monospace; font-size: 14px; line-height: 19px; white-space: pre;&quot;&gt;&lt;div style=&quot;line-height: 19px;&quot;&gt;&lt;div style=&quot;line-height: 19px;&quot;&gt;&lt;div style=&quot;line-height: 19px;&quot;&gt;&lt;div style=&quot;line-height: 19px;&quot;&gt;&lt;div&gt;&lt;span style=&quot;font-weight: bold;&quot;&gt;-&lt;/span&gt;TechnicianID&lt;span style=&quot;font-weight: bold;&quot;&gt;:&lt;/span&gt; int&lt;/div&gt;&lt;div&gt;&lt;span style=&quot;font-weight: bold;&quot;&gt;-&lt;/span&gt;FullName&lt;span style=&quot;font-weight: bold;&quot;&gt;:&lt;/span&gt; String&lt;/div&gt;&lt;div&gt;&lt;span style=&quot;font-weight: bold;&quot;&gt;-&lt;/span&gt;ContactInfo&lt;span style=&quot;font-weight: bold;&quot;&gt;:&lt;/span&gt; String&lt;/div&gt;&lt;div&gt;&lt;span style=&quot;font-weight: bold;&quot;&gt;-&lt;/span&gt;Specialization&lt;span style=&quot;font-weight: bold;&quot;&gt;:&lt;/span&gt; String&lt;/div&gt;&lt;div&gt;&lt;span style=&quot;font-weight: bold;&quot;&gt;-&lt;/span&gt;LabName&lt;span style=&quot;font-weight: bold;&quot;&gt;:&lt;/span&gt; String&lt;/div&gt;&lt;div&gt;&lt;span style=&quot;font-weight: bold;&quot;&gt;-&lt;/span&gt;YearsOfExperience&lt;span style=&quot;font-weight: bold;&quot;&gt;:&lt;/span&gt; int&lt;/div&gt;&lt;div&gt;-testReport: TestReport&lt;/div&gt;&lt;hr&gt;&lt;div&gt;&lt;span style=&quot;font-weight: bold;&quot;&gt;+&lt;/span&gt;updateTestStatus&lt;span style=&quot;font-weight: bold;&quot;&gt;():&lt;/span&gt; void&lt;/div&gt;&lt;div&gt;&lt;span style=&quot;font-weight: bold;&quot;&gt;+&lt;/span&gt;updateProfile&lt;span style=&quot;font-weight: bold;&quot;&gt;():&lt;/span&gt; void&lt;/div&gt;&lt;/div&gt;&lt;/div&gt;&lt;/div&gt;&lt;/div&gt;&lt;/div&gt;" style="text;strokeColor=none;fillColor=none;align=left;verticalAlign=top;spacingLeft=4;spacingRight=4;overflow=hidden;points=[[0,0.5],[1,0.5]];portConstraint=eastwest;rotatable=0;whiteSpace=wrap;html=1;" parent="3bDkZ6XuROaeYBq_H3r6-27" vertex="1">
          <mxGeometry y="30" width="221" height="220" as="geometry" />
        </mxCell>
        <mxCell id="3bDkZ6XuROaeYBq_H3r6-29" value="&lt;h3&gt;&lt;b&gt;Test Report&lt;/b&gt;&lt;/h3&gt;" style="swimlane;fontStyle=0;childLayout=stackLayout;horizontal=1;startSize=30;horizontalStack=0;resizeParent=1;resizeParentMax=0;resizeLast=0;collapsible=1;marginBottom=0;whiteSpace=wrap;html=1;" parent="WIyWlLk6GJQsqaUBKTNV-1" vertex="1">
          <mxGeometry x="1070" y="1520" width="251" height="290" as="geometry" />
        </mxCell>
        <mxCell id="3bDkZ6XuROaeYBq_H3r6-30" value="&lt;div style=&quot;background-color: rgb(255, 255, 254); font-family: Consolas, &amp;quot;Courier New&amp;quot;, monospace; font-size: 14px; line-height: 19px; white-space: pre;&quot;&gt;&lt;div style=&quot;line-height: 19px;&quot;&gt;&lt;div style=&quot;line-height: 19px;&quot;&gt;&lt;div style=&quot;line-height: 19px;&quot;&gt;&lt;div style=&quot;line-height: 19px;&quot;&gt;&lt;div&gt;&lt;span style=&quot;font-weight: bold;&quot;&gt;-&lt;/span&gt;ReportID&lt;span style=&quot;font-weight: bold;&quot;&gt;:&lt;/span&gt; int&lt;/div&gt;&lt;div&gt;&lt;span style=&quot;font-weight: bold;&quot;&gt;-&lt;/span&gt;PatientID&lt;span style=&quot;font-weight: bold;&quot;&gt;:&lt;/span&gt; int&lt;/div&gt;&lt;div&gt;&lt;span style=&quot;font-weight: bold;&quot;&gt;-&lt;/span&gt;DoctorID&lt;span style=&quot;font-weight: bold;&quot;&gt;:&lt;/span&gt; int&lt;/div&gt;&lt;div&gt;&lt;span style=&quot;font-weight: bold;&quot;&gt;-&lt;/span&gt;TestName&lt;span style=&quot;font-weight: bold;&quot;&gt;:&lt;/span&gt; String&lt;/div&gt;&lt;div&gt;&lt;span style=&quot;font-weight: bold;&quot;&gt;-&lt;/span&gt;TestDate&lt;span style=&quot;font-weight: bold;&quot;&gt;:&lt;/span&gt; Date&lt;/div&gt;&lt;div&gt;&lt;span style=&quot;font-weight: bold;&quot;&gt;-&lt;/span&gt;TestResults&lt;span style=&quot;font-weight: bold;&quot;&gt;:&lt;/span&gt; String&lt;/div&gt;&lt;div&gt;&lt;span style=&quot;font-weight: bold;&quot;&gt;-&lt;/span&gt;AssociatedAppointmentID&lt;span style=&quot;font-weight: bold;&quot;&gt;:&lt;/span&gt; int&lt;/div&gt;&lt;div&gt;&lt;span style=&quot;font-weight: bold;&quot;&gt;-&lt;/span&gt;TestStatus&lt;span style=&quot;font-weight: bold;&quot;&gt;:&lt;/span&gt; String&lt;/div&gt;&lt;div&gt;&lt;span style=&quot;font-weight: bold;&quot;&gt;-&lt;/span&gt;LabTechnicianID&lt;span style=&quot;font-weight: bold;&quot;&gt;:&lt;/span&gt; int&lt;/div&gt;&lt;div&gt;&lt;span style=&quot;font-weight: bold;&quot;&gt;-&lt;/span&gt;LabName&lt;span style=&quot;font-weight: bold;&quot;&gt;:&lt;/span&gt; String&lt;/div&gt;&lt;hr&gt;&lt;div&gt;&lt;span style=&quot;font-weight: bold;&quot;&gt;+&lt;/span&gt;generateReport&lt;span style=&quot;font-weight: bold;&quot;&gt;():&lt;/span&gt; TestReport&lt;/div&gt;&lt;div&gt;&lt;span style=&quot;font-weight: bold;&quot;&gt;+&lt;/span&gt;viewReportDetails&lt;span style=&quot;font-weight: bold;&quot;&gt;():&lt;/span&gt; void&lt;/div&gt;&lt;/div&gt;&lt;/div&gt;&lt;/div&gt;&lt;/div&gt;&lt;/div&gt;" style="text;strokeColor=none;fillColor=none;align=left;verticalAlign=top;spacingLeft=4;spacingRight=4;overflow=hidden;points=[[0,0.5],[1,0.5]];portConstraint=eastwest;rotatable=0;whiteSpace=wrap;html=1;" parent="3bDkZ6XuROaeYBq_H3r6-29" vertex="1">
          <mxGeometry y="30" width="251" height="260" as="geometry" />
        </mxCell>
        <mxCell id="3bDkZ6XuROaeYBq_H3r6-31" value="&lt;h3&gt;Notification&lt;/h3&gt;" style="swimlane;fontStyle=0;childLayout=stackLayout;horizontal=1;startSize=30;horizontalStack=0;resizeParent=1;resizeParentMax=0;resizeLast=0;collapsible=1;marginBottom=0;whiteSpace=wrap;html=1;" parent="WIyWlLk6GJQsqaUBKTNV-1" vertex="1">
          <mxGeometry x="1820" y="1240" width="201" height="180" as="geometry" />
        </mxCell>
        <mxCell id="3bDkZ6XuROaeYBq_H3r6-32" value="&lt;div style=&quot;background-color: rgb(255, 255, 254); font-family: Consolas, &amp;quot;Courier New&amp;quot;, monospace; font-size: 14px; line-height: 19px; white-space: pre;&quot;&gt;&lt;div style=&quot;line-height: 19px;&quot;&gt;&lt;div style=&quot;line-height: 19px;&quot;&gt;&lt;div&gt;&lt;span style=&quot;font-weight: bold;&quot;&gt;-&lt;/span&gt;NotificationID&lt;span style=&quot;font-weight: bold;&quot;&gt;:&lt;/span&gt; int&lt;/div&gt;&lt;div&gt;&lt;span style=&quot;font-weight: bold;&quot;&gt;-&lt;/span&gt;UserID&lt;span style=&quot;font-weight: bold;&quot;&gt;:&lt;/span&gt; int&lt;/div&gt;&lt;div&gt;&lt;span style=&quot;font-weight: bold;&quot;&gt;-&lt;/span&gt;MessageContent&lt;span style=&quot;font-weight: bold;&quot;&gt;:&lt;/span&gt; String&lt;/div&gt;&lt;div&gt;&lt;span style=&quot;font-weight: bold;&quot;&gt;-&lt;/span&gt;NotificationDate&lt;span style=&quot;font-weight: bold;&quot;&gt;:&lt;/span&gt; Date&lt;/div&gt;&lt;div&gt;&lt;span style=&quot;font-weight: bold;&quot;&gt;-&lt;/span&gt;Status&lt;span style=&quot;font-weight: bold;&quot;&gt;:&lt;/span&gt; String&lt;/div&gt;&lt;hr&gt;&lt;div&gt;&lt;span style=&quot;font-weight: bold;&quot;&gt;+&lt;/span&gt;markAsRead&lt;span style=&quot;font-weight: bold;&quot;&gt;():&lt;/span&gt; void&lt;/div&gt;&lt;/div&gt;&lt;/div&gt;&lt;/div&gt;" style="text;strokeColor=none;fillColor=none;align=left;verticalAlign=top;spacingLeft=4;spacingRight=4;overflow=hidden;points=[[0,0.5],[1,0.5]];portConstraint=eastwest;rotatable=0;whiteSpace=wrap;html=1;" parent="3bDkZ6XuROaeYBq_H3r6-31" vertex="1">
          <mxGeometry y="30" width="201" height="150" as="geometry" />
        </mxCell>
        <mxCell id="3bDkZ6XuROaeYBq_H3r6-33" value="&lt;h3&gt;Feedback&lt;/h3&gt;" style="swimlane;fontStyle=0;childLayout=stackLayout;horizontal=1;startSize=30;horizontalStack=0;resizeParent=1;resizeParentMax=0;resizeLast=0;collapsible=1;marginBottom=0;whiteSpace=wrap;html=1;" parent="WIyWlLk6GJQsqaUBKTNV-1" vertex="1">
          <mxGeometry x="1950" y="420" width="181" height="210" as="geometry" />
        </mxCell>
        <mxCell id="3bDkZ6XuROaeYBq_H3r6-34" value="&lt;div style=&quot;background-color: rgb(255, 255, 254); font-family: Consolas, &amp;quot;Courier New&amp;quot;, monospace; font-size: 14px; line-height: 19px; white-space: pre;&quot;&gt;&lt;div style=&quot;line-height: 19px;&quot;&gt;&lt;div style=&quot;line-height: 19px;&quot;&gt;&lt;div&gt;&lt;span style=&quot;font-weight: bold;&quot;&gt;-&lt;/span&gt;FeedbackID: int&lt;/div&gt;&lt;div&gt;&lt;span style=&quot;font-weight: bold;&quot;&gt;-&lt;/span&gt;PatientID: int&lt;/div&gt;&lt;div&gt;&lt;span style=&quot;font-weight: bold;&quot;&gt;-&lt;/span&gt;DoctorID: int&lt;/div&gt;&lt;div&gt;&lt;span style=&quot;font-weight: bold;&quot;&gt;-&lt;/span&gt;AppointmentID: int&lt;/div&gt;&lt;div&gt;&lt;span style=&quot;font-weight: bold;&quot;&gt;-&lt;/span&gt;FeedbackText: string&lt;/div&gt;&lt;div&gt;&lt;span style=&quot;font-weight: bold;&quot;&gt;-&lt;/span&gt;Rating: int&lt;/div&gt;&lt;hr&gt;&lt;div&gt;&lt;span style=&quot;font-weight: bold;&quot;&gt;+&lt;/span&gt;addFeedback&lt;span style=&quot;font-weight: bold;&quot;&gt;()&lt;/span&gt;&lt;/div&gt;&lt;div&gt;&lt;span style=&quot;font-weight: bold;&quot;&gt;+&lt;/span&gt;getFeedback&lt;span style=&quot;font-weight: bold;&quot;&gt;()&lt;/span&gt;&lt;/div&gt;&lt;/div&gt;&lt;/div&gt;&lt;/div&gt;" style="text;strokeColor=none;fillColor=none;align=left;verticalAlign=top;spacingLeft=4;spacingRight=4;overflow=hidden;points=[[0,0.5],[1,0.5]];portConstraint=eastwest;rotatable=0;whiteSpace=wrap;html=1;" parent="3bDkZ6XuROaeYBq_H3r6-33" vertex="1">
          <mxGeometry y="30" width="181" height="180" as="geometry" />
        </mxCell>
        <mxCell id="3bDkZ6XuROaeYBq_H3r6-35" value="&lt;h3&gt;EHR&lt;/h3&gt;" style="swimlane;fontStyle=0;childLayout=stackLayout;horizontal=1;startSize=30;horizontalStack=0;resizeParent=1;resizeParentMax=0;resizeLast=0;collapsible=1;marginBottom=0;whiteSpace=wrap;html=1;" parent="WIyWlLk6GJQsqaUBKTNV-1" vertex="1">
          <mxGeometry x="980" y="1100" width="451" height="300" as="geometry" />
        </mxCell>
        <mxCell id="3bDkZ6XuROaeYBq_H3r6-36" value="&lt;div style=&quot;background-color: rgb(255, 255, 254); font-family: Consolas, &amp;quot;Courier New&amp;quot;, monospace; font-size: 14px; line-height: 19px; white-space: pre;&quot;&gt;&lt;div style=&quot;line-height: 19px;&quot;&gt;&lt;div style=&quot;line-height: 19px;&quot;&gt;&lt;div&gt;&lt;span style=&quot;font-weight: bold;&quot;&gt;-&lt;/span&gt;EHR_ID&lt;span style=&quot;font-weight: bold;&quot;&gt;:&lt;/span&gt; int&lt;/div&gt;&lt;div&gt;&lt;span style=&quot;font-weight: bold;&quot;&gt;-&lt;/span&gt;PatientID&lt;span style=&quot;font-weight: bold;&quot;&gt;:&lt;/span&gt; int&lt;/div&gt;&lt;div&gt;&lt;span style=&quot;font-weight: bold;&quot;&gt;-&lt;/span&gt;drugHistory: DrugHistory&lt;/div&gt;&lt;span style=&quot;font-weight: bold;&quot;&gt;-&lt;/span&gt;medicationHistory: MedicationHistory&lt;/div&gt;&lt;div&gt;&lt;span style=&quot;font-weight: bold;&quot;&gt;-&lt;/span&gt;familyHistory: FamilyHistory&lt;hr&gt;&lt;div&gt;&lt;span style=&quot;font-weight: 700;&quot;&gt;+&lt;/span&gt;AddTestReport(report:TestReport)&lt;span style=&quot;font-weight: bold;&quot;&gt;:&lt;/span&gt; void&lt;/div&gt;&lt;div&gt;&lt;span style=&quot;font-weight: 700;&quot;&gt;+&lt;/span&gt;UpdateTestReport()&lt;span style=&quot;font-weight: bold;&quot;&gt;:&lt;/span&gt; void&lt;/div&gt;&lt;div&gt;&lt;span style=&quot;font-weight: bold;&quot;&gt;+&lt;/span&gt;getEHR&lt;span style=&quot;font-weight: bold;&quot;&gt;():&lt;/span&gt; EHR&lt;/div&gt;&lt;div&gt;&lt;span style=&quot;font-weight: bold;&quot;&gt;+&lt;/span&gt;updateHealthRecord&lt;span style=&quot;font-weight: bold;&quot;&gt;(&lt;/span&gt;id:PatientID&lt;span style=&quot;font-weight: bold;&quot;&gt;):&lt;/span&gt; void&lt;/div&gt;&lt;div&gt;&lt;div&gt;&lt;span style=&quot;font-weight: bold;&quot;&gt;+&lt;/span&gt;getMedicationHistory&lt;span style=&quot;font-weight: bold;&quot;&gt;(&lt;/span&gt;id:PatientID&lt;span style=&quot;font-weight: bold;&quot;&gt;):&lt;/span&gt; MedicationHistory&lt;/div&gt;&lt;/div&gt;&lt;div&gt;&lt;div&gt;&lt;span style=&quot;font-weight: bold;&quot;&gt;+&lt;/span&gt;getFamilyHistory&lt;span style=&quot;font-weight: bold;&quot;&gt;(&lt;/span&gt;id:PatientID&lt;span style=&quot;font-weight: bold;&quot;&gt;):&lt;/span&gt; FamilyHistory&lt;/div&gt;&lt;/div&gt;&lt;div&gt;&lt;div&gt;&lt;span style=&quot;font-weight: bold;&quot;&gt;+&lt;/span&gt;getDrugHistory&lt;span style=&quot;font-weight: bold;&quot;&gt;(&lt;/span&gt;id:PatientID&lt;span style=&quot;font-weight: bold;&quot;&gt;):&lt;/span&gt; DrugHistory&lt;/div&gt;&lt;/div&gt;&lt;/div&gt;&lt;/div&gt;&lt;/div&gt;" style="text;strokeColor=none;fillColor=none;align=left;verticalAlign=top;spacingLeft=4;spacingRight=4;overflow=hidden;points=[[0,0.5],[1,0.5]];portConstraint=eastwest;rotatable=0;whiteSpace=wrap;html=1;" parent="3bDkZ6XuROaeYBq_H3r6-35" vertex="1">
          <mxGeometry y="30" width="451" height="270" as="geometry" />
        </mxCell>
        <mxCell id="3bDkZ6XuROaeYBq_H3r6-37" value="&lt;h3&gt;Department&amp;nbsp;&lt;/h3&gt;" style="swimlane;fontStyle=0;childLayout=stackLayout;horizontal=1;startSize=30;horizontalStack=0;resizeParent=1;resizeParentMax=0;resizeLast=0;collapsible=1;marginBottom=0;whiteSpace=wrap;html=1;" parent="WIyWlLk6GJQsqaUBKTNV-1" vertex="1">
          <mxGeometry x="2810" y="680" width="271" height="170" as="geometry" />
        </mxCell>
        <mxCell id="3bDkZ6XuROaeYBq_H3r6-38" value="&lt;div style=&quot;background-color: rgb(255, 255, 254); font-family: Consolas, &amp;quot;Courier New&amp;quot;, monospace; font-size: 14px; line-height: 19px; white-space: pre;&quot;&gt;&lt;div style=&quot;line-height: 19px;&quot;&gt;&lt;div style=&quot;line-height: 19px;&quot;&gt;&lt;div&gt;&lt;span style=&quot;font-weight: bold;&quot;&gt;-&lt;/span&gt;DepartmentID: int &lt;/div&gt;&lt;div&gt;&lt;span style=&quot;font-weight: bold;&quot;&gt;-&lt;/span&gt;DepartmentName: String&lt;/div&gt;&lt;div&gt;&lt;span style=&quot;font-weight: bold;&quot;&gt;-&lt;/span&gt;ContactInfo: String&lt;/div&gt;&lt;div&gt;-doctorList[]: Doctor&lt;/div&gt;&lt;hr&gt;&lt;div&gt;&lt;span style=&quot;font-weight: bold;&quot;&gt;+&lt;/span&gt;getDepartmentDetails&lt;span style=&quot;font-weight: bold;&quot;&gt;(): &lt;/span&gt;String&lt;/div&gt;&lt;div&gt;&lt;span style=&quot;font-weight: bold;&quot;&gt;+&lt;/span&gt;getDoctorLists(): Doctor[]&lt;/div&gt;&lt;/div&gt;&lt;/div&gt;&lt;/div&gt;" style="text;strokeColor=none;fillColor=none;align=left;verticalAlign=top;spacingLeft=4;spacingRight=4;overflow=hidden;points=[[0,0.5],[1,0.5]];portConstraint=eastwest;rotatable=0;whiteSpace=wrap;html=1;" parent="3bDkZ6XuROaeYBq_H3r6-37" vertex="1">
          <mxGeometry y="30" width="271" height="140" as="geometry" />
        </mxCell>
        <mxCell id="3bDkZ6XuROaeYBq_H3r6-42" value="&lt;h3&gt;Payment&lt;/h3&gt;" style="swimlane;fontStyle=0;childLayout=stackLayout;horizontal=1;startSize=30;horizontalStack=0;resizeParent=1;resizeParentMax=0;resizeLast=0;collapsible=1;marginBottom=0;whiteSpace=wrap;html=1;" parent="WIyWlLk6GJQsqaUBKTNV-1" vertex="1">
          <mxGeometry x="1930" y="1600" width="221" height="220" as="geometry" />
        </mxCell>
        <mxCell id="3bDkZ6XuROaeYBq_H3r6-43" value="&lt;div style=&quot;background-color: rgb(255, 255, 254); font-family: Consolas, &amp;quot;Courier New&amp;quot;, monospace; font-size: 14px; line-height: 19px; white-space: pre;&quot;&gt;&lt;div style=&quot;line-height: 19px;&quot;&gt;&lt;div style=&quot;line-height: 19px;&quot;&gt;&lt;div style=&quot;line-height: 19px;&quot;&gt;&lt;div&gt;&lt;span style=&quot;font-weight: bold;&quot;&gt;-&lt;/span&gt;PaymentID&lt;span style=&quot;font-weight: bold;&quot;&gt;:&lt;/span&gt; int&lt;/div&gt;&lt;div&gt;&lt;span style=&quot;font-weight: bold;&quot;&gt;-&lt;/span&gt;AppointmentID&lt;span style=&quot;font-weight: bold;&quot;&gt;:&lt;/span&gt; int&lt;/div&gt;&lt;div&gt;&lt;span style=&quot;font-weight: bold;&quot;&gt;-&lt;/span&gt;PatientID&lt;span style=&quot;font-weight: bold;&quot;&gt;:&lt;/span&gt; int&lt;/div&gt;&lt;div&gt;&lt;span style=&quot;font-weight: bold;&quot;&gt;-&lt;/span&gt;Amount&lt;span style=&quot;font-weight: bold;&quot;&gt;:&lt;/span&gt; Double&lt;/div&gt;&lt;div&gt;&lt;span style=&quot;font-weight: bold;&quot;&gt;-&lt;/span&gt;PaymentDate&lt;span style=&quot;font-weight: bold;&quot;&gt;:&lt;/span&gt; Date&lt;/div&gt;&lt;div&gt;&lt;span style=&quot;font-weight: bold;&quot;&gt;-&lt;/span&gt;PaymentMethod&lt;span style=&quot;font-weight: bold;&quot;&gt;:&lt;/span&gt; String&lt;/div&gt;&lt;div&gt;&lt;span style=&quot;font-weight: bold;&quot;&gt;-&lt;/span&gt;TransactionStatus&lt;span style=&quot;font-weight: bold;&quot;&gt;:&lt;/span&gt; String&lt;/div&gt;&lt;hr&gt;&lt;div&gt;&lt;span style=&quot;font-weight: bold;&quot;&gt;+&lt;/span&gt;processPayment&lt;span style=&quot;font-weight: bold;&quot;&gt;():&lt;/span&gt; void&lt;/div&gt;&lt;/div&gt;&lt;/div&gt;&lt;/div&gt;&lt;/div&gt;" style="text;strokeColor=none;fillColor=none;align=left;verticalAlign=top;spacingLeft=4;spacingRight=4;overflow=hidden;points=[[0,0.5],[1,0.5]];portConstraint=eastwest;rotatable=0;whiteSpace=wrap;html=1;" parent="3bDkZ6XuROaeYBq_H3r6-42" vertex="1">
          <mxGeometry y="30" width="221" height="190" as="geometry" />
        </mxCell>
        <mxCell id="3bDkZ6XuROaeYBq_H3r6-44" value="&lt;h3&gt;Admin&lt;/h3&gt;" style="swimlane;fontStyle=0;childLayout=stackLayout;horizontal=1;startSize=30;horizontalStack=0;resizeParent=1;resizeParentMax=0;resizeLast=0;collapsible=1;marginBottom=0;whiteSpace=wrap;html=1;" parent="WIyWlLk6GJQsqaUBKTNV-1" vertex="1">
          <mxGeometry x="2500" y="1340" width="281" height="200" as="geometry" />
        </mxCell>
        <mxCell id="3bDkZ6XuROaeYBq_H3r6-45" value="&lt;div style=&quot;background-color: rgb(255, 255, 254); font-family: Consolas, &amp;quot;Courier New&amp;quot;, monospace; font-size: 14px; line-height: 19px; white-space: pre;&quot;&gt;&lt;div style=&quot;line-height: 19px;&quot;&gt;&lt;div style=&quot;line-height: 19px;&quot;&gt;&lt;div style=&quot;line-height: 19px;&quot;&gt;&lt;div style=&quot;line-height: 19px;&quot;&gt;&lt;div&gt;&lt;span style=&quot;font-weight: bold;&quot;&gt;-&lt;/span&gt;AdminID&lt;span style=&quot;font-weight: bold;&quot;&gt;:&lt;/span&gt; int&lt;/div&gt;&lt;div&gt;&lt;span style=&quot;font-weight: bold;&quot;&gt;-&lt;/span&gt;FullName&lt;span style=&quot;font-weight: bold;&quot;&gt;:&lt;/span&gt; String&lt;/div&gt;&lt;div&gt;&lt;span style=&quot;font-weight: bold;&quot;&gt;-&lt;/span&gt;ContactInfo&lt;span style=&quot;font-weight: bold;&quot;&gt;:&lt;/span&gt; String&lt;/div&gt;&lt;div&gt;&lt;span style=&quot;font-weight: bold;&quot;&gt;-&lt;/span&gt;payment:Payment&lt;/div&gt;&lt;div&gt;-appointment: Appointment&lt;/div&gt;&lt;hr&gt;&lt;div&gt;&lt;span style=&quot;font-weight: bold;&quot;&gt;+&lt;/span&gt;sendNotification&lt;span style=&quot;font-weight: bold;&quot;&gt;():&lt;/span&gt; void&lt;/div&gt;&lt;div&gt;&lt;span style=&quot;font-weight: bold;&quot;&gt;+&lt;/span&gt;processPayment&lt;span style=&quot;font-weight: bold;&quot;&gt;():&lt;/span&gt; void&lt;/div&gt;&lt;/div&gt;&lt;/div&gt;&lt;/div&gt;&lt;/div&gt;&lt;/div&gt;" style="text;strokeColor=none;fillColor=none;align=left;verticalAlign=top;spacingLeft=4;spacingRight=4;overflow=hidden;points=[[0,0.5],[1,0.5]];portConstraint=eastwest;rotatable=0;whiteSpace=wrap;html=1;" parent="3bDkZ6XuROaeYBq_H3r6-44" vertex="1">
          <mxGeometry y="30" width="281" height="170" as="geometry" />
        </mxCell>
        <mxCell id="3bDkZ6XuROaeYBq_H3r6-67" style="edgeStyle=orthogonalEdgeStyle;rounded=0;orthogonalLoop=1;jettySize=auto;html=1;entryX=1;entryY=0.5;entryDx=0;entryDy=0;" parent="WIyWlLk6GJQsqaUBKTNV-1" source="3bDkZ6XuROaeYBq_H3r6-20" target="3bDkZ6XuROaeYBq_H3r6-36" edge="1">
          <mxGeometry relative="1" as="geometry" />
        </mxCell>
        <mxCell id="3bDkZ6XuROaeYBq_H3r6-104" value="&lt;b&gt;Has&lt;/b&gt;" style="text;html=1;align=center;verticalAlign=middle;resizable=0;points=[];autosize=1;strokeColor=none;fillColor=none;" parent="WIyWlLk6GJQsqaUBKTNV-1" vertex="1">
          <mxGeometry x="1420" y="1000" width="50" height="30" as="geometry" />
        </mxCell>
        <mxCell id="3bDkZ6XuROaeYBq_H3r6-108" style="edgeStyle=orthogonalEdgeStyle;rounded=0;orthogonalLoop=1;jettySize=auto;html=1;entryX=0.518;entryY=1.002;entryDx=0;entryDy=0;entryPerimeter=0;" parent="WIyWlLk6GJQsqaUBKTNV-1" source="3bDkZ6XuROaeYBq_H3r6-27" target="3bDkZ6XuROaeYBq_H3r6-30" edge="1">
          <mxGeometry relative="1" as="geometry" />
        </mxCell>
        <mxCell id="3bDkZ6XuROaeYBq_H3r6-109" value="&lt;b&gt;Handle&lt;/b&gt;" style="text;html=1;align=center;verticalAlign=middle;resizable=0;points=[];autosize=1;strokeColor=none;fillColor=none;" parent="WIyWlLk6GJQsqaUBKTNV-1" vertex="1">
          <mxGeometry x="1190" y="1850" width="60" height="30" as="geometry" />
        </mxCell>
        <mxCell id="3bDkZ6XuROaeYBq_H3r6-111" value="&lt;b&gt;Generate&lt;/b&gt;" style="text;html=1;align=center;verticalAlign=middle;resizable=0;points=[];autosize=1;strokeColor=none;fillColor=none;" parent="WIyWlLk6GJQsqaUBKTNV-1" vertex="1">
          <mxGeometry x="2030" y="1490" width="80" height="30" as="geometry" />
        </mxCell>
        <mxCell id="3bDkZ6XuROaeYBq_H3r6-114" value="&lt;b&gt;Book&lt;/b&gt;" style="text;html=1;align=center;verticalAlign=middle;resizable=0;points=[];autosize=1;strokeColor=none;fillColor=none;" parent="WIyWlLk6GJQsqaUBKTNV-1" vertex="1">
          <mxGeometry x="1790" y="990" width="50" height="30" as="geometry" />
        </mxCell>
        <mxCell id="3bDkZ6XuROaeYBq_H3r6-115" value="&lt;b&gt;Receive&amp;nbsp;&lt;/b&gt;" style="text;html=1;align=center;verticalAlign=middle;resizable=0;points=[];autosize=1;strokeColor=none;fillColor=none;" parent="WIyWlLk6GJQsqaUBKTNV-1" vertex="1">
          <mxGeometry x="1730" y="1260" width="70" height="30" as="geometry" />
        </mxCell>
        <mxCell id="3bDkZ6XuROaeYBq_H3r6-116" value="&lt;b&gt;Make&lt;/b&gt;" style="text;html=1;align=center;verticalAlign=middle;resizable=0;points=[];autosize=1;strokeColor=none;fillColor=none;" parent="WIyWlLk6GJQsqaUBKTNV-1" vertex="1">
          <mxGeometry x="1670" y="1380" width="50" height="30" as="geometry" />
        </mxCell>
        <mxCell id="3bDkZ6XuROaeYBq_H3r6-117" style="edgeStyle=orthogonalEdgeStyle;rounded=0;orthogonalLoop=1;jettySize=auto;html=1;entryX=0;entryY=0.5;entryDx=0;entryDy=0;" parent="WIyWlLk6GJQsqaUBKTNV-1" source="3bDkZ6XuROaeYBq_H3r6-10" target="3bDkZ6XuROaeYBq_H3r6-38" edge="1">
          <mxGeometry relative="1" as="geometry" />
        </mxCell>
        <mxCell id="3bDkZ6XuROaeYBq_H3r6-118" value="&lt;b&gt;Belong&lt;/b&gt;" style="text;html=1;align=center;verticalAlign=middle;resizable=0;points=[];autosize=1;strokeColor=none;fillColor=none;" parent="WIyWlLk6GJQsqaUBKTNV-1" vertex="1">
          <mxGeometry x="2700" y="750" width="60" height="30" as="geometry" />
        </mxCell>
        <mxCell id="3bDkZ6XuROaeYBq_H3r6-119" style="edgeStyle=orthogonalEdgeStyle;rounded=0;orthogonalLoop=1;jettySize=auto;html=1;entryX=1;entryY=0.5;entryDx=0;entryDy=0;" parent="WIyWlLk6GJQsqaUBKTNV-1" source="3bDkZ6XuROaeYBq_H3r6-10" target="3bDkZ6XuROaeYBq_H3r6-22" edge="1">
          <mxGeometry relative="1" as="geometry" />
        </mxCell>
        <mxCell id="3bDkZ6XuROaeYBq_H3r6-120" value="&lt;b&gt;Scedule&lt;/b&gt;" style="text;html=1;align=center;verticalAlign=middle;resizable=0;points=[];autosize=1;strokeColor=none;fillColor=none;" parent="WIyWlLk6GJQsqaUBKTNV-1" vertex="1">
          <mxGeometry x="2260" y="910" width="70" height="30" as="geometry" />
        </mxCell>
        <mxCell id="3bDkZ6XuROaeYBq_H3r6-122" value="&lt;b&gt;Receive&amp;nbsp;&lt;/b&gt;" style="text;html=1;align=center;verticalAlign=middle;resizable=0;points=[];autosize=1;strokeColor=none;fillColor=none;" parent="WIyWlLk6GJQsqaUBKTNV-1" vertex="1">
          <mxGeometry x="2440" y="1260" width="70" height="30" as="geometry" />
        </mxCell>
        <mxCell id="3bDkZ6XuROaeYBq_H3r6-126" value="&lt;b&gt;Use&lt;/b&gt;" style="endArrow=open;endSize=12;dashed=1;html=1;rounded=0;exitX=1;exitY=0.5;exitDx=0;exitDy=0;entryX=-0.005;entryY=0.163;entryDx=0;entryDy=0;entryPerimeter=0;" parent="WIyWlLk6GJQsqaUBKTNV-1" source="3bDkZ6XuROaeYBq_H3r6-30" target="3bDkZ6XuROaeYBq_H3r6-24" edge="1">
          <mxGeometry width="160" relative="1" as="geometry">
            <mxPoint x="1260" y="1650" as="sourcePoint" />
            <mxPoint x="1420" y="1650" as="targetPoint" />
          </mxGeometry>
        </mxCell>
        <mxCell id="3bDkZ6XuROaeYBq_H3r6-130" value="&lt;b&gt;Give&lt;/b&gt;" style="text;html=1;align=center;verticalAlign=middle;resizable=0;points=[];autosize=1;strokeColor=none;fillColor=none;" parent="WIyWlLk6GJQsqaUBKTNV-1" vertex="1">
          <mxGeometry x="1760" y="500" width="50" height="30" as="geometry" />
        </mxCell>
        <mxCell id="3bDkZ6XuROaeYBq_H3r6-132" style="edgeStyle=orthogonalEdgeStyle;rounded=0;orthogonalLoop=1;jettySize=auto;html=1;entryX=0.389;entryY=-0.001;entryDx=0;entryDy=0;entryPerimeter=0;" parent="WIyWlLk6GJQsqaUBKTNV-1" source="3bDkZ6XuROaeYBq_H3r6-19" target="3bDkZ6XuROaeYBq_H3r6-23" edge="1">
          <mxGeometry relative="1" as="geometry">
            <Array as="points">
              <mxPoint x="1567" y="1160" />
              <mxPoint x="1567" y="1160" />
            </Array>
          </mxGeometry>
        </mxCell>
        <mxCell id="3bDkZ6XuROaeYBq_H3r6-133" value="&lt;b&gt;Receive&amp;nbsp;&lt;/b&gt;" style="text;html=1;align=center;verticalAlign=middle;resizable=0;points=[];autosize=1;strokeColor=none;fillColor=none;" parent="WIyWlLk6GJQsqaUBKTNV-1" vertex="1">
          <mxGeometry x="1530" y="1260" width="70" height="30" as="geometry" />
        </mxCell>
        <mxCell id="3bDkZ6XuROaeYBq_H3r6-136" value="&lt;b&gt;Receive&amp;nbsp;&lt;/b&gt;" style="text;html=1;align=center;verticalAlign=middle;resizable=0;points=[];autosize=1;strokeColor=none;fillColor=none;" parent="WIyWlLk6GJQsqaUBKTNV-1" vertex="1">
          <mxGeometry x="2250" y="1200" width="70" height="30" as="geometry" />
        </mxCell>
        <mxCell id="3bDkZ6XuROaeYBq_H3r6-140" style="edgeStyle=orthogonalEdgeStyle;rounded=0;orthogonalLoop=1;jettySize=auto;html=1;entryX=1;entryY=0.5;entryDx=0;entryDy=0;" parent="WIyWlLk6GJQsqaUBKTNV-1" source="3bDkZ6XuROaeYBq_H3r6-45" target="3bDkZ6XuROaeYBq_H3r6-32" edge="1">
          <mxGeometry relative="1" as="geometry">
            <Array as="points">
              <mxPoint x="2430" y="1455" />
              <mxPoint x="2430" y="1350" />
              <mxPoint x="2020" y="1350" />
            </Array>
          </mxGeometry>
        </mxCell>
        <mxCell id="3bDkZ6XuROaeYBq_H3r6-141" value="&lt;b&gt;Make&lt;/b&gt;" style="text;html=1;align=center;verticalAlign=middle;resizable=0;points=[];autosize=1;strokeColor=none;fillColor=none;" parent="WIyWlLk6GJQsqaUBKTNV-1" vertex="1">
          <mxGeometry x="2345" y="1338" width="50" height="30" as="geometry" />
        </mxCell>
        <mxCell id="3bDkZ6XuROaeYBq_H3r6-142" style="edgeStyle=orthogonalEdgeStyle;rounded=0;orthogonalLoop=1;jettySize=auto;html=1;entryX=0.998;entryY=0.663;entryDx=0;entryDy=0;entryPerimeter=0;" parent="WIyWlLk6GJQsqaUBKTNV-1" source="3bDkZ6XuROaeYBq_H3r6-44" target="3bDkZ6XuROaeYBq_H3r6-43" edge="1">
          <mxGeometry relative="1" as="geometry" />
        </mxCell>
        <mxCell id="3bDkZ6XuROaeYBq_H3r6-143" value="&lt;b&gt;Process&lt;/b&gt;" style="text;html=1;align=center;verticalAlign=middle;resizable=0;points=[];autosize=1;strokeColor=none;fillColor=none;" parent="WIyWlLk6GJQsqaUBKTNV-1" vertex="1">
          <mxGeometry x="2485" y="1728" width="70" height="30" as="geometry" />
        </mxCell>
        <mxCell id="zu1XlUxhLJcwnkoZsy7A-1" style="edgeStyle=orthogonalEdgeStyle;rounded=0;orthogonalLoop=1;jettySize=auto;html=1;entryX=1;entryY=0.167;entryDx=0;entryDy=0;entryPerimeter=0;" parent="WIyWlLk6GJQsqaUBKTNV-1" source="3bDkZ6XuROaeYBq_H3r6-7" target="3bDkZ6XuROaeYBq_H3r6-34" edge="1">
          <mxGeometry relative="1" as="geometry">
            <Array as="points">
              <mxPoint x="2515" y="480" />
            </Array>
          </mxGeometry>
        </mxCell>
        <mxCell id="zu1XlUxhLJcwnkoZsy7A-2" value="&lt;b&gt;Get&lt;/b&gt;" style="text;html=1;align=center;verticalAlign=middle;resizable=0;points=[];autosize=1;strokeColor=none;fillColor=none;" parent="WIyWlLk6GJQsqaUBKTNV-1" vertex="1">
          <mxGeometry x="2370" y="450" width="40" height="30" as="geometry" />
        </mxCell>
        <mxCell id="1RGsNLScatuhlmofofDI-1" style="edgeStyle=orthogonalEdgeStyle;rounded=0;orthogonalLoop=1;jettySize=auto;html=1;entryX=1.008;entryY=0.73;entryDx=0;entryDy=0;entryPerimeter=0;" edge="1" parent="WIyWlLk6GJQsqaUBKTNV-1" source="3bDkZ6XuROaeYBq_H3r6-44" target="3bDkZ6XuROaeYBq_H3r6-22">
          <mxGeometry relative="1" as="geometry" />
        </mxCell>
        <mxCell id="1RGsNLScatuhlmofofDI-2" value="&lt;b&gt;Create&lt;/b&gt;" style="text;html=1;align=center;verticalAlign=middle;resizable=0;points=[];autosize=1;strokeColor=none;fillColor=none;" vertex="1" parent="WIyWlLk6GJQsqaUBKTNV-1">
          <mxGeometry x="2580" y="990" width="60" height="30" as="geometry" />
        </mxCell>
        <mxCell id="1RGsNLScatuhlmofofDI-6" value="&lt;h3&gt;Drug History&lt;/h3&gt;" style="swimlane;fontStyle=0;childLayout=stackLayout;horizontal=1;startSize=30;horizontalStack=0;resizeParent=1;resizeParentMax=0;resizeLast=0;collapsible=1;marginBottom=0;whiteSpace=wrap;html=1;" vertex="1" parent="WIyWlLk6GJQsqaUBKTNV-1">
          <mxGeometry x="820" y="680" width="391" height="220" as="geometry">
            <mxRectangle x="160" y="560" width="90" height="60" as="alternateBounds" />
          </mxGeometry>
        </mxCell>
        <mxCell id="1RGsNLScatuhlmofofDI-7" value="&lt;div style=&quot;background-color: rgb(255, 255, 254); font-family: Consolas, &amp;quot;Courier New&amp;quot;, monospace; font-size: 14px; line-height: 19px; white-space: pre;&quot;&gt;&lt;div style=&quot;line-height: 19px;&quot;&gt;&lt;div style=&quot;line-height: 19px;&quot;&gt;&lt;div style=&quot;line-height: 19px;&quot;&gt;&lt;div&gt;&lt;span style=&quot;font-weight: bold;&quot;&gt;-&lt;/span&gt;HistoryID&lt;span style=&quot;font-weight: bold;&quot;&gt;:&lt;/span&gt; int&lt;/div&gt;&lt;div&gt;&lt;span style=&quot;font-weight: bold;&quot;&gt;-&lt;/span&gt;PatientID&lt;span style=&quot;font-weight: bold;&quot;&gt;:&lt;/span&gt; int&lt;/div&gt;&lt;div&gt;&lt;b&gt;-&lt;/b&gt;Type:String&lt;/div&gt;&lt;div&gt;&lt;span style=&quot;font-weight: bold;&quot;&gt;-&lt;/span&gt;DrugHistory&lt;span style=&quot;font-weight: bold;&quot;&gt;:&lt;/span&gt; String&lt;/div&gt;&lt;div&gt;&lt;span style=&quot;font-weight: bold;&quot;&gt;-&lt;/span&gt;RiskFactors&lt;span style=&quot;font-weight: bold;&quot;&gt;:&lt;/span&gt; String&lt;/div&gt;&lt;hr&gt;&lt;div&gt;&lt;span style=&quot;font-weight: bold;&quot;&gt;+&lt;/span&gt;getDrugHistory&lt;span style=&quot;font-weight: bold;&quot;&gt;(&lt;/span&gt;id:PatientID&lt;span style=&quot;font-weight: bold;&quot;&gt;):&lt;/span&gt; DrugHistory&lt;/div&gt;&lt;div&gt;&lt;span style=&quot;font-weight: bold;&quot;&gt;+&lt;/span&gt;getRiskFactors&lt;span style=&quot;font-weight: bold;&quot;&gt;(&lt;/span&gt;id:PatientID&lt;span style=&quot;font-weight: bold;&quot;&gt;):&lt;/span&gt; String&lt;/div&gt;&lt;div&gt;&lt;span style=&quot;font-weight: bold;&quot;&gt;+&lt;/span&gt;updateDrugHistory&lt;span style=&quot;font-weight: bold;&quot;&gt;(&lt;/span&gt;dHistory:DrugHistory&lt;span style=&quot;font-weight: bold;&quot;&gt;):&lt;/span&gt; void&lt;/div&gt;&lt;/div&gt;&lt;/div&gt;&lt;/div&gt;&lt;/div&gt;" style="text;strokeColor=none;fillColor=none;align=left;verticalAlign=top;spacingLeft=4;spacingRight=4;overflow=hidden;points=[[0,0.5],[1,0.5]];portConstraint=eastwest;rotatable=0;whiteSpace=wrap;html=1;" vertex="1" parent="1RGsNLScatuhlmofofDI-6">
          <mxGeometry y="30" width="391" height="190" as="geometry" />
        </mxCell>
        <mxCell id="1RGsNLScatuhlmofofDI-9" value="&lt;p style=&quot;margin:0px;margin-top:4px;text-align:center;&quot;&gt;&lt;i&gt;&amp;lt;&amp;lt;Interface&amp;gt;&amp;gt;&lt;/i&gt;&lt;br&gt;&lt;b&gt;History&lt;/b&gt;&lt;/p&gt;&lt;hr size=&quot;1&quot; style=&quot;border-style:solid;&quot;&gt;&lt;p style=&quot;margin:0px;margin-left:4px;&quot;&gt;&lt;span style=&quot;background-color: rgb(251, 251, 251);&quot;&gt;&lt;b&gt;+&amp;nbsp;&lt;/b&gt;&lt;/span&gt;&lt;span style=&quot;font-family: Consolas, &amp;quot;Courier New&amp;quot;, monospace; font-size: 14px; white-space: pre; background-color: rgb(255, 255, 254);&quot;&gt;HistoryID&lt;/span&gt;&lt;span style=&quot;font-family: Consolas, &amp;quot;Courier New&amp;quot;, monospace; font-size: 14px; white-space: pre; background-color: rgb(255, 255, 254); font-weight: bold;&quot;&gt;:&lt;/span&gt;&lt;span style=&quot;font-family: Consolas, &amp;quot;Courier New&amp;quot;, monospace; font-size: 14px; white-space: pre; background-color: rgb(255, 255, 254);&quot;&gt; int&lt;/span&gt;&lt;br&gt;&lt;b&gt;+&lt;/b&gt;&amp;nbsp;&lt;span style=&quot;font-family: Consolas, &amp;quot;Courier New&amp;quot;, monospace; font-size: 14px; white-space: pre; background-color: rgb(255, 255, 254);&quot;&gt;PatientID&lt;/span&gt;&lt;span style=&quot;font-family: Consolas, &amp;quot;Courier New&amp;quot;, monospace; font-size: 14px; white-space: pre; background-color: rgb(255, 255, 254); font-weight: bold;&quot;&gt;:&lt;/span&gt;&lt;span style=&quot;font-family: Consolas, &amp;quot;Courier New&amp;quot;, monospace; font-size: 14px; white-space: pre; background-color: rgb(255, 255, 254);&quot;&gt; int&lt;/span&gt;&lt;/p&gt;&lt;p style=&quot;margin:0px;margin-left:4px;&quot;&gt;&lt;font face=&quot;Consolas, Courier New, monospace&quot;&gt;&lt;span style=&quot;font-size: 14px; white-space: pre; background-color: rgb(255, 255, 254);&quot;&gt;+&lt;/span&gt;&lt;/font&gt;&lt;span style=&quot;background-color: rgb(255, 255, 254); font-family: Consolas, &amp;quot;Courier New&amp;quot;, monospace; font-size: 14px; white-space: pre;&quot;&gt;type:String&lt;/span&gt;&lt;/p&gt;&lt;hr size=&quot;1&quot; style=&quot;border-style:solid;&quot;&gt;&lt;p style=&quot;margin:0px;margin-left:4px;&quot;&gt;&lt;span style=&quot;background-color: rgb(251, 251, 251);&quot;&gt;&lt;b&gt;+&amp;nbsp;&lt;/b&gt;&lt;/span&gt;&lt;span style=&quot;font-family: Consolas, &amp;quot;Courier New&amp;quot;, monospace; font-size: 14px; white-space: pre; background-color: rgb(255, 255, 254);&quot;&gt;getRiskFactors()&lt;/span&gt;&lt;span style=&quot;font-family: Consolas, &amp;quot;Courier New&amp;quot;, monospace; font-size: 14px; white-space: pre; background-color: rgb(255, 255, 254); font-weight: bold;&quot;&gt;:&lt;/span&gt;&lt;span style=&quot;font-family: Consolas, &amp;quot;Courier New&amp;quot;, monospace; font-size: 14px; white-space: pre; background-color: rgb(255, 255, 254);&quot;&gt; String&lt;/span&gt;&lt;br&gt;&lt;/p&gt;" style="verticalAlign=top;align=left;overflow=fill;html=1;whiteSpace=wrap;" vertex="1" parent="WIyWlLk6GJQsqaUBKTNV-1">
          <mxGeometry x="240" y="715" width="221" height="150" as="geometry" />
        </mxCell>
        <mxCell id="1RGsNLScatuhlmofofDI-10" value="&lt;h3&gt;Family History&lt;/h3&gt;" style="swimlane;fontStyle=0;childLayout=stackLayout;horizontal=1;startSize=30;horizontalStack=0;resizeParent=1;resizeParentMax=0;resizeLast=0;collapsible=1;marginBottom=0;whiteSpace=wrap;html=1;" vertex="1" parent="WIyWlLk6GJQsqaUBKTNV-1">
          <mxGeometry x="410" y="990" width="421" height="220" as="geometry">
            <mxRectangle x="160" y="560" width="90" height="60" as="alternateBounds" />
          </mxGeometry>
        </mxCell>
        <mxCell id="1RGsNLScatuhlmofofDI-11" value="&lt;div style=&quot;background-color: rgb(255, 255, 254); font-family: Consolas, &amp;quot;Courier New&amp;quot;, monospace; font-size: 14px; line-height: 19px; white-space: pre;&quot;&gt;&lt;div style=&quot;line-height: 19px;&quot;&gt;&lt;div style=&quot;line-height: 19px;&quot;&gt;&lt;div style=&quot;line-height: 19px;&quot;&gt;&lt;div&gt;&lt;span style=&quot;font-weight: bold;&quot;&gt;-&lt;/span&gt;HistoryID&lt;span style=&quot;font-weight: bold;&quot;&gt;:&lt;/span&gt; int&lt;/div&gt;&lt;div&gt;&lt;span style=&quot;font-weight: bold;&quot;&gt;-&lt;/span&gt;PatientID&lt;span style=&quot;font-weight: bold;&quot;&gt;:&lt;/span&gt; int&lt;/div&gt;&lt;div&gt;&lt;b&gt;-&lt;/b&gt;type:String&lt;/div&gt;&lt;div&gt;&lt;span style=&quot;font-weight: bold;&quot;&gt;-&lt;/span&gt;FamilyHistory&lt;span style=&quot;font-weight: bold;&quot;&gt;:&lt;/span&gt; String&lt;/div&gt;&lt;div&gt;&lt;span style=&quot;font-weight: bold;&quot;&gt;-&lt;/span&gt;RiskFactors&lt;span style=&quot;font-weight: bold;&quot;&gt;:&lt;/span&gt; String&lt;/div&gt;&lt;hr&gt;&lt;div&gt;&lt;span style=&quot;font-weight: bold;&quot;&gt;+&lt;/span&gt;getFamilyHistory&lt;span style=&quot;font-weight: bold;&quot;&gt;(&lt;/span&gt;id:PatientID&lt;span style=&quot;font-weight: bold;&quot;&gt;):&lt;/span&gt; FamilyHistory&lt;/div&gt;&lt;div&gt;&lt;span style=&quot;font-weight: bold;&quot;&gt;+&lt;/span&gt;getRiskFactors&lt;span style=&quot;font-weight: bold;&quot;&gt;(&lt;/span&gt;id:PatientID&lt;span style=&quot;font-weight: bold;&quot;&gt;):&lt;/span&gt; String&lt;/div&gt;&lt;div&gt;&lt;span style=&quot;font-weight: bold;&quot;&gt;+&lt;/span&gt;updateFamilyHistory&lt;span style=&quot;font-weight: bold;&quot;&gt;(&lt;/span&gt;fHistory:FamilyHistory&lt;span style=&quot;font-weight: bold;&quot;&gt;):&lt;/span&gt; void&lt;/div&gt;&lt;/div&gt;&lt;/div&gt;&lt;/div&gt;&lt;/div&gt;" style="text;strokeColor=none;fillColor=none;align=left;verticalAlign=top;spacingLeft=4;spacingRight=4;overflow=hidden;points=[[0,0.5],[1,0.5]];portConstraint=eastwest;rotatable=0;whiteSpace=wrap;html=1;" vertex="1" parent="1RGsNLScatuhlmofofDI-10">
          <mxGeometry y="30" width="421" height="190" as="geometry" />
        </mxCell>
        <mxCell id="1RGsNLScatuhlmofofDI-12" value="&lt;h3&gt;Medication History&lt;/h3&gt;" style="swimlane;fontStyle=0;childLayout=stackLayout;horizontal=1;startSize=30;horizontalStack=0;resizeParent=1;resizeParentMax=0;resizeLast=0;collapsible=1;marginBottom=0;whiteSpace=wrap;html=1;" vertex="1" parent="WIyWlLk6GJQsqaUBKTNV-1">
          <mxGeometry x="330" y="1330" width="441" height="220" as="geometry">
            <mxRectangle x="160" y="560" width="90" height="60" as="alternateBounds" />
          </mxGeometry>
        </mxCell>
        <mxCell id="1RGsNLScatuhlmofofDI-13" value="&lt;div style=&quot;background-color: rgb(255, 255, 254); font-family: Consolas, &amp;quot;Courier New&amp;quot;, monospace; font-size: 14px; line-height: 19px; white-space: pre;&quot;&gt;&lt;div style=&quot;line-height: 19px;&quot;&gt;&lt;div style=&quot;line-height: 19px;&quot;&gt;&lt;div style=&quot;line-height: 19px;&quot;&gt;&lt;div&gt;&lt;span style=&quot;font-weight: bold;&quot;&gt;-&lt;/span&gt;HistoryID&lt;span style=&quot;font-weight: bold;&quot;&gt;:&lt;/span&gt; int&lt;/div&gt;&lt;div&gt;&lt;span style=&quot;font-weight: bold;&quot;&gt;-&lt;/span&gt;PatientID&lt;span style=&quot;font-weight: bold;&quot;&gt;:&lt;/span&gt; int&lt;/div&gt;&lt;div&gt;&lt;b&gt;-&lt;/b&gt;type:String&lt;/div&gt;&lt;div&gt;&lt;span style=&quot;font-weight: bold;&quot;&gt;-&lt;/span&gt;MedicationHistory&lt;span style=&quot;font-weight: bold;&quot;&gt;:&lt;/span&gt; String&lt;/div&gt;&lt;div&gt;&lt;span style=&quot;font-weight: bold;&quot;&gt;-&lt;/span&gt;RiskFactors&lt;span style=&quot;font-weight: bold;&quot;&gt;:&lt;/span&gt; String&lt;/div&gt;&lt;hr&gt;&lt;div&gt;&lt;span style=&quot;font-weight: bold;&quot;&gt;+&lt;/span&gt;getMedicationHistory&lt;span style=&quot;font-weight: bold;&quot;&gt;(&lt;/span&gt;id:PatientID&lt;span style=&quot;font-weight: bold;&quot;&gt;):&lt;/span&gt; MedicationHistory&lt;/div&gt;&lt;div&gt;&lt;span style=&quot;font-weight: bold;&quot;&gt;+&lt;/span&gt;getRiskFactors&lt;span style=&quot;font-weight: bold;&quot;&gt;(&lt;/span&gt;id:PatientID&lt;span style=&quot;font-weight: bold;&quot;&gt;):&lt;/span&gt; String&lt;/div&gt;&lt;div&gt;&lt;span style=&quot;font-weight: bold;&quot;&gt;+&lt;/span&gt;updateMedicationHistory&lt;span style=&quot;font-weight: bold;&quot;&gt;(&lt;/span&gt;mHistory:MedicationHistory&lt;span style=&quot;font-weight: bold;&quot;&gt;):&lt;/span&gt; void&lt;/div&gt;&lt;/div&gt;&lt;/div&gt;&lt;/div&gt;&lt;/div&gt;" style="text;strokeColor=none;fillColor=none;align=left;verticalAlign=top;spacingLeft=4;spacingRight=4;overflow=hidden;points=[[0,0.5],[1,0.5]];portConstraint=eastwest;rotatable=0;whiteSpace=wrap;html=1;" vertex="1" parent="1RGsNLScatuhlmofofDI-12">
          <mxGeometry y="30" width="441" height="190" as="geometry" />
        </mxCell>
        <mxCell id="1RGsNLScatuhlmofofDI-14" value="" style="endArrow=block;dashed=1;endFill=0;endSize=12;html=1;rounded=0;exitX=0;exitY=0.5;exitDx=0;exitDy=0;" edge="1" parent="WIyWlLk6GJQsqaUBKTNV-1" source="1RGsNLScatuhlmofofDI-7" target="1RGsNLScatuhlmofofDI-9">
          <mxGeometry width="160" relative="1" as="geometry">
            <mxPoint x="640" y="980" as="sourcePoint" />
            <mxPoint x="800" y="980" as="targetPoint" />
          </mxGeometry>
        </mxCell>
        <mxCell id="1RGsNLScatuhlmofofDI-15" value="" style="endArrow=block;dashed=1;endFill=0;endSize=12;html=1;rounded=0;entryX=0.5;entryY=1;entryDx=0;entryDy=0;" edge="1" parent="WIyWlLk6GJQsqaUBKTNV-1" source="1RGsNLScatuhlmofofDI-10" target="1RGsNLScatuhlmofofDI-9">
          <mxGeometry width="160" relative="1" as="geometry">
            <mxPoint x="830" y="815" as="sourcePoint" />
            <mxPoint x="470" y="804" as="targetPoint" />
          </mxGeometry>
        </mxCell>
        <mxCell id="1RGsNLScatuhlmofofDI-16" value="" style="endArrow=block;dashed=1;endFill=0;endSize=12;html=1;rounded=0;entryX=0.25;entryY=1;entryDx=0;entryDy=0;exitX=-0.01;exitY=0.427;exitDx=0;exitDy=0;exitPerimeter=0;" edge="1" parent="WIyWlLk6GJQsqaUBKTNV-1" source="1RGsNLScatuhlmofofDI-13" target="1RGsNLScatuhlmofofDI-9">
          <mxGeometry width="160" relative="1" as="geometry">
            <mxPoint x="496" y="1000" as="sourcePoint" />
            <mxPoint x="360" y="875" as="targetPoint" />
          </mxGeometry>
        </mxCell>
        <mxCell id="1RGsNLScatuhlmofofDI-17" value="Use" style="endArrow=open;endSize=12;dashed=1;html=1;rounded=0;exitX=0.5;exitY=0;exitDx=0;exitDy=0;entryX=0.878;entryY=1.013;entryDx=0;entryDy=0;entryPerimeter=0;" edge="1" parent="WIyWlLk6GJQsqaUBKTNV-1" source="3bDkZ6XuROaeYBq_H3r6-35" target="1RGsNLScatuhlmofofDI-7">
          <mxGeometry width="160" relative="1" as="geometry">
            <mxPoint x="640" y="1080" as="sourcePoint" />
            <mxPoint x="800" y="1080" as="targetPoint" />
          </mxGeometry>
        </mxCell>
        <mxCell id="1RGsNLScatuhlmofofDI-18" value="Use" style="endArrow=open;endSize=12;dashed=1;html=1;rounded=0;exitX=0;exitY=0.091;exitDx=0;exitDy=0;exitPerimeter=0;entryX=1;entryY=0.5;entryDx=0;entryDy=0;" edge="1" parent="WIyWlLk6GJQsqaUBKTNV-1" source="3bDkZ6XuROaeYBq_H3r6-36" target="1RGsNLScatuhlmofofDI-11">
          <mxGeometry width="160" relative="1" as="geometry">
            <mxPoint x="640" y="1180" as="sourcePoint" />
            <mxPoint x="800" y="1180" as="targetPoint" />
          </mxGeometry>
        </mxCell>
        <mxCell id="1RGsNLScatuhlmofofDI-19" value="Use" style="endArrow=open;endSize=12;dashed=1;html=1;rounded=0;exitX=-0.003;exitY=0.873;exitDx=0;exitDy=0;exitPerimeter=0;entryX=1.001;entryY=0.011;entryDx=0;entryDy=0;entryPerimeter=0;" edge="1" parent="WIyWlLk6GJQsqaUBKTNV-1" source="3bDkZ6XuROaeYBq_H3r6-36" target="1RGsNLScatuhlmofofDI-13">
          <mxGeometry width="160" relative="1" as="geometry">
            <mxPoint x="1000" y="1190" as="sourcePoint" />
            <mxPoint x="810" y="1190" as="targetPoint" />
          </mxGeometry>
        </mxCell>
        <mxCell id="1RGsNLScatuhlmofofDI-22" value="Use" style="endArrow=open;endSize=12;dashed=1;html=1;rounded=0;entryX=0.557;entryY=0.996;entryDx=0;entryDy=0;entryPerimeter=0;exitX=0.45;exitY=-0.003;exitDx=0;exitDy=0;exitPerimeter=0;" edge="1" parent="WIyWlLk6GJQsqaUBKTNV-1" source="3bDkZ6XuROaeYBq_H3r6-29" target="3bDkZ6XuROaeYBq_H3r6-36">
          <mxGeometry width="160" relative="1" as="geometry">
            <mxPoint x="1190" y="1510" as="sourcePoint" />
            <mxPoint x="1200" y="1180" as="targetPoint" />
          </mxGeometry>
        </mxCell>
        <mxCell id="1RGsNLScatuhlmofofDI-23" value="&lt;b&gt;1&lt;/b&gt;" style="text;html=1;align=center;verticalAlign=middle;resizable=0;points=[];autosize=1;strokeColor=none;fillColor=none;" vertex="1" parent="WIyWlLk6GJQsqaUBKTNV-1">
          <mxGeometry x="1205" y="1920" width="30" height="30" as="geometry" />
        </mxCell>
        <mxCell id="1RGsNLScatuhlmofofDI-24" value="&lt;b&gt;*&lt;/b&gt;" style="text;html=1;align=center;verticalAlign=middle;resizable=0;points=[];autosize=1;strokeColor=none;fillColor=none;" vertex="1" parent="WIyWlLk6GJQsqaUBKTNV-1">
          <mxGeometry x="1175" y="1810" width="30" height="30" as="geometry" />
        </mxCell>
        <mxCell id="1RGsNLScatuhlmofofDI-26" value="&lt;b&gt;1&lt;/b&gt;" style="text;html=1;align=center;verticalAlign=middle;resizable=0;points=[];autosize=1;strokeColor=none;fillColor=none;" vertex="1" parent="WIyWlLk6GJQsqaUBKTNV-1">
          <mxGeometry x="2355" y="820" width="30" height="30" as="geometry" />
        </mxCell>
        <mxCell id="1RGsNLScatuhlmofofDI-27" value="&lt;b&gt;*&lt;/b&gt;" style="text;html=1;align=center;verticalAlign=middle;resizable=0;points=[];autosize=1;strokeColor=none;fillColor=none;" vertex="1" parent="WIyWlLk6GJQsqaUBKTNV-1">
          <mxGeometry x="1920" y="1000" width="30" height="30" as="geometry" />
        </mxCell>
        <mxCell id="1RGsNLScatuhlmofofDI-28" value="&lt;b&gt;1&lt;/b&gt;" style="text;html=1;align=center;verticalAlign=middle;resizable=0;points=[];autosize=1;strokeColor=none;fillColor=none;" vertex="1" parent="WIyWlLk6GJQsqaUBKTNV-1">
          <mxGeometry x="1720" y="960" width="30" height="30" as="geometry" />
        </mxCell>
        <mxCell id="1RGsNLScatuhlmofofDI-29" value="&lt;b&gt;*&lt;/b&gt;" style="text;html=1;align=center;verticalAlign=middle;resizable=0;points=[];autosize=1;strokeColor=none;fillColor=none;" vertex="1" parent="WIyWlLk6GJQsqaUBKTNV-1">
          <mxGeometry x="2230" y="900" width="30" height="30" as="geometry" />
        </mxCell>
        <mxCell id="1RGsNLScatuhlmofofDI-30" value="&lt;b&gt;1&lt;/b&gt;" style="text;html=1;align=center;verticalAlign=middle;resizable=0;points=[];autosize=1;strokeColor=none;fillColor=none;" vertex="1" parent="WIyWlLk6GJQsqaUBKTNV-1">
          <mxGeometry x="2610" y="1308" width="30" height="30" as="geometry" />
        </mxCell>
        <mxCell id="1RGsNLScatuhlmofofDI-31" value="&lt;b&gt;*&lt;/b&gt;" style="text;html=1;align=center;verticalAlign=middle;resizable=0;points=[];autosize=1;strokeColor=none;fillColor=none;" vertex="1" parent="WIyWlLk6GJQsqaUBKTNV-1">
          <mxGeometry x="2240" y="970" width="30" height="30" as="geometry" />
        </mxCell>
        <mxCell id="1RGsNLScatuhlmofofDI-32" value="&lt;b&gt;1&lt;/b&gt;" style="text;html=1;align=center;verticalAlign=middle;resizable=0;points=[];autosize=1;strokeColor=none;fillColor=none;" vertex="1" parent="WIyWlLk6GJQsqaUBKTNV-1">
          <mxGeometry x="2470" y="1425" width="30" height="30" as="geometry" />
        </mxCell>
        <mxCell id="1RGsNLScatuhlmofofDI-33" value="&lt;b&gt;*&lt;/b&gt;" style="text;html=1;align=center;verticalAlign=middle;resizable=0;points=[];autosize=1;strokeColor=none;fillColor=none;" vertex="1" parent="WIyWlLk6GJQsqaUBKTNV-1">
          <mxGeometry x="2020" y="1330" width="30" height="30" as="geometry" />
        </mxCell>
        <mxCell id="1RGsNLScatuhlmofofDI-36" value="&lt;b&gt;*&lt;/b&gt;" style="text;html=1;align=center;verticalAlign=middle;resizable=0;points=[];autosize=1;strokeColor=none;fillColor=none;" vertex="1" parent="WIyWlLk6GJQsqaUBKTNV-1">
          <mxGeometry x="1790" y="1270" width="30" height="30" as="geometry" />
        </mxCell>
        <mxCell id="1RGsNLScatuhlmofofDI-37" value="&lt;b&gt;1&lt;/b&gt;" style="text;html=1;align=center;verticalAlign=middle;resizable=0;points=[];autosize=1;strokeColor=none;fillColor=none;" vertex="1" parent="WIyWlLk6GJQsqaUBKTNV-1">
          <mxGeometry x="1670" y="960" width="30" height="30" as="geometry" />
        </mxCell>
      </root>
    </mxGraphModel>
  </diagram>
</mxfile>
